PathFileType	4	(X/Y/Z)	marker.trc
DataRate	CameraRate	NumFrames	NumMarkers	Units	OrigDataRate	OrigDataStartFrame	OrigNumFrames
128	128	34	6	m	128	2404	3845
Frame#	Time	US29-1	US29-2	US29-3	US30-1	US30-2	US30-3	
		X1	Y1	Z1	X2	Y2	Z2	X3	Y3	Z3	X4	Y4	Z4	X5	Y5	Z5	X6	Y6	Z6	

2403	18.78125	-0.176741763949394	0.325691401958466	0.0646023601293564	-0.144304126501083	0.327989310026169	0.0428058952093124	-0.167057275772095	0.34611976146698	0.0681517794728279	-0.203938066959381	0.375615954399109	0.00629232963547111	-0.20881924033165	0.363206952810287	0.0287615302950144	-0.202265158295631	0.385574251413345	0.0298260319977999	
2404	18.789062	-0.178258508443832	0.327754288911819	0.0640743151307106	-0.145745649933815	0.329866051673889	0.0423557832837105	-0.168494492769241	0.348111003637314	0.0676668360829353	-0.205123141407967	0.37788787484169	0.005801010876894	-0.210138037800789	0.365351945161819	0.0281097423285246	-0.203625619411469	0.387748837471008	0.0293586757034063	
2405	18.796875	-0.179530754685402	0.329627811908722	0.063630223274231	-0.147082716226578	0.331582307815552	0.041827067732811	-0.169628605246544	0.349938750267029	0.0672121122479439	-0.206093937158585	0.379966586828232	0.00536808650940657	-0.211195081472397	0.367382198572159	0.0275963973253965	-0.204538375139236	0.389790505170822	0.0289150234311819	
2406	18.804687	-0.180608123540878	0.331318795681	0.0630880147218704	-0.148063257336617	0.333123713731766	0.0413699708878994	-0.17064006626606	0.351521760225296	0.0667146146297455	-0.206945061683655	0.381825059652328	0.00487800827249885	-0.212095528841019	0.369250029325485	0.0271066464483738	-0.205376595258713	0.391577124595642	0.0285076200962067	
2407	18.8125	-0.181417390704155	0.332781225442886	0.0626081898808479	-0.148892387747765	0.334487527608871	0.0409245453774929	-0.171350508928299	0.352990567684174	0.0662823095917702	-0.207542136311531	0.383475691080093	0.0044094156473875	-0.212850227952003	0.370901077985764	0.0266256593167782	-0.205816954374313	0.393185496330261	0.0280019547790289	
2408	18.820312	-0.18203829228878	0.334015697240829	0.0621014498174191	-0.149432808160782	0.335627675056458	0.0404203198850155	-0.171880468726158	0.354146420955658	0.0657993853092194	-0.207908719778061	0.384800434112549	0.00394967850297689	-0.213145136833191	0.372255355119705	0.0261457469314337	-0.206314966082573	0.394510865211487	0.0275569520890713	
2409	18.828125	-0.182401776313782	0.334970057010651	0.0616844035685062	-0.149643003940582	0.336527973413467	0.0400781184434891	-0.172203838825226	0.355102568864822	0.0653468295931816	-0.208032235503197	0.385863453149796	0.003503531916067	-0.213304743170738	0.373320668935776	0.0256797522306442	-0.20634052157402	0.395599633455276	0.0271481871604919	
2410	18.835937	-0.182395935058594	0.335582703351974	0.061267726123333	-0.149742305278778	0.337162047624588	0.0396427474915981	-0.17219303548336	0.355750352144241	0.0650047808885574	-0.207930251955986	0.386629343032837	0.0031012799590826	-0.213246837258339	0.374072939157486	0.0252006910741329	-0.206231579184532	0.396305292844772	0.0267168153077364	
2411	18.84375	-0.18214949965477	0.335928201675415	0.0608579069375992	-0.149430394172668	0.337503790855408	0.0393432751297951	-0.171887844800949	0.356096565723419	0.0646137818694115	-0.207465767860413	0.387072712182999	0.00265338737517595	-0.212841153144836	0.374451607465744	0.0247763097286224	-0.205917358398438	0.396720170974731	0.0263141766190529	
2412	18.851562	-0.181539937853813	0.336016863584518	0.060588650405407	-0.14874741435051	0.337582021951675	0.039154551923275	-0.171340093016624	0.356163680553436	0.0643472671508789	-0.206825867295265	0.38709956407547	0.00226811342872679	-0.212275549769402	0.37451183795929	0.0244137644767761	-0.205325737595558	0.396748423576355	0.0259357281029224	
2413	18.859375	-0.180744230747223	0.335806220769882	0.0602995753288269	-0.147930040955544	0.337414562702179	0.0388821475207806	-0.170613393187523	0.355957895517349	0.0640631914138794	-0.205938577651978	0.386790484189987	0.00190477934665978	-0.211411997675896	0.374233305454254	0.0240216962993145	-0.204445064067841	0.396466672420502	0.0255712904036045	
2414	18.867187	-0.179652914404869	0.335320115089417	0.0600549504160881	-0.146790131926537	0.337004870176315	0.0387619510293007	-0.16952283680439	0.355498552322388	0.063871793448925	-0.204858228564262	0.386206120252609	0.00158553454093635	-0.210281267762184	0.373627871274948	0.0236995723098516	-0.203481733798981	0.395921498537064	0.0252837482839823	
2415	18.875	-0.17840364575386	0.334557503461838	0.0598716363310814	-0.145435139536858	0.336337149143219	0.0386461652815342	-0.16835130751133	0.354742616415024	0.0636751875281334	-0.203524515032768	0.385345578193665	0.00135861104354262	-0.209076091647148	0.372731238603592	0.0234429743140936	-0.202165618538857	0.395105600357056	0.0250059980899096	
2416	18.882812	-0.176807478070259	0.333520650863647	0.0596936121582985	-0.143862143158913	0.335434794425964	0.0385761819779873	-0.166837364435196	0.353768765926361	0.0635508298873901	-0.202115133404732	0.384165227413177	0.00117584469262511	-0.207523688673973	0.371716529130936	0.0233820471912622	-0.200872421264648	0.393928974866867	0.0248046610504389	
2417	18.890625	-0.174995139241219	0.332278072834015	0.0596338324248791	-0.142045438289642	0.334313184022903	0.0385177284479141	-0.165155470371246	0.352524220943451	0.0634676143527031	-0.200490400195122	0.382746487855911	0.00103389250580221	-0.205909505486488	0.370269358158112	0.0232411678880453	-0.199287578463554	0.392585545778275	0.0247869957238436	
2418	18.898437	-0.172964289784431	0.33072492480278	0.0595867782831192	-0.140052333474159	0.332980304956436	0.0384107455611229	-0.163189798593521	0.351087212562561	0.0634318813681602	-0.198796704411507	0.381070643663406	0.000979020609520376	-0.204080730676651	0.368608295917511	0.0232069529592991	-0.197592839598656	0.390955030918121	0.0246648862957954	
2419	18.90625	-0.170719623565674	0.328965216875076	0.0596014745533466	-0.137785881757736	0.331397235393524	0.0384474471211433	-0.16112320125103	0.349363654851913	0.0634282529354095	-0.196823582053185	0.379135817289352	0.00100312696304172	-0.202071815729141	0.366584897041321	0.0232300739735365	-0.195722609758377	0.389006763696671	0.02469652146101	
2420	18.914062	-0.16822512447834	0.326934069395065	0.0596370100975037	-0.135309725999832	0.32965549826622	0.0384991653263569	-0.158767655491829	0.347380042076111	0.0634900406002998	-0.1946841776371	0.37698233127594	0.00101742974948138	-0.199854627251625	0.364369451999664	0.0232811961323023	-0.193671897053719	0.38681560754776	0.0247624032199383	
2421	18.921875	-0.165435031056404	0.324697613716125	0.059758085757494	-0.132520914077759	0.327638268470764	0.0386289618909359	-0.156186267733574	0.345242500305176	0.0636016726493835	-0.192331954836845	0.374446034431458	0.00111626472789794	-0.197364568710327	0.36184099316597	0.0233867261558771	-0.191434189677238	0.384332865476608	0.0248595830053091	
2422	18.929687	-0.162387564778328	0.322212129831314	0.0599352493882179	-0.12948140501976	0.325474500656128	0.0388443432748318	-0.15323144197464	0.342858076095581	0.063810907304287	-0.1896912753582	0.37169685959816	0.0012949121883139	-0.194645389914513	0.359098106622696	0.0235293880105019	-0.188833504915237	0.381649225950241	0.0249357558786869	
2423	18.9375	-0.159011721611023	0.319550514221191	0.0601923055946827	-0.126202777028084	0.323079645633698	0.0390292890369892	-0.150145500898361	0.340300410985947	0.0640244707465172	-0.186810582876205	0.368719756603241	0.00149633013643324	-0.191678732633591	0.356093168258667	0.0236902683973312	-0.186036303639412	0.378666043281555	0.0251195747405291	
2424	18.945312	-0.155390217900276	0.316784143447876	0.0604843199253082	-0.12264721095562	0.320633262395859	0.0393730774521828	-0.146718457341194	0.33757883310318	0.0642876774072647	-0.183657631278038	0.365543097257614	0.00176841206848621	-0.188400879502296	0.352902799844742	0.0238323993980885	-0.183114811778069	0.3756223320961	0.0252729468047619	
2425	18.953125	-0.151658102869987	0.313805282115936	0.0608607828617096	-0.118815764784813	0.318027496337891	0.0397701002657413	-0.143090799450874	0.334732502698898	0.0646995231509209	-0.180310264229774	0.362165927886963	0.00203930982388556	-0.18501153588295	0.349558472633362	0.0239675957709551	-0.179892867803574	0.372268736362457	0.0253789722919464	
2426	18.960937	-0.14748902618885	0.310726255178452	0.0613347962498665	-0.114690199494362	0.315275609493256	0.0402363501489162	-0.139222651720047	0.33173280954361	0.065099686384201	-0.176793664693832	0.358607679605484	0.00207955972291529	-0.181250467896461	0.345803588628769	0.0250018574297428	-0.176398023962975	0.368749231100082	0.0257930271327496	
2427	18.96875	-0.143020540475845	0.307487785816193	0.0618415623903275	-0.110357217490673	0.312424093484879	0.0408089272677898	-0.135008350014687	0.328622967004776	0.0655965656042099	-0.172900319099426	0.354773998260498	0.00276934495195746	-0.177225589752197	0.342072516679764	0.0253996998071671	-0.172704190015793	0.364894658327103	0.0267006698995829	
2428	18.976562	-0.138341993093491	0.304096102714539	0.0623965561389923	-0.105617314577103	0.309452325105667	0.041487529873848	-0.130571857094765	0.325369477272034	0.0661778822541237	-0.168665066361427	0.350889831781387	0.00323538738302886	-0.172960355877876	0.33819192647934	0.0256913248449564	-0.168635338544846	0.361048489809036	0.0270181745290756	
2429	18.984375	-0.133422702550888	0.300609409809113	0.0631258338689804	-0.100589163601398	0.30634269118309	0.0422468632459641	-0.125929653644562	0.321982145309448	0.0668601989746094	-0.164147928357124	0.346756786108017	0.00369537808001041	-0.168370872735977	0.334082812070847	0.0260871630162001	-0.164277538657188	0.356964945793152	0.0272778421640396	
2430	18.992187	-0.127999931573868	0.297023743391037	0.0639195889234543	-0.0952609926462173	0.30315887928009	0.0431220941245556	-0.120873436331749	0.318491727113724	0.0676153674721718	-0.15934194624424	0.342436760663986	0.00424712849780917	-0.163424611091614	0.329842656850815	0.0265729743987322	-0.159629344940186	0.352799296379089	0.0276152901351452	
2431	19	-0.12237223982811	0.293348371982574	0.0647628977894783	-0.089666485786438	0.299958109855652	0.0440967157483101	-0.115664772689342	0.314943432807922	0.0684522539377213	-0.154120996594429	0.338072538375854	0.00485358107835054	-0.1581701785326	0.325481534004211	0.0271609108895063	-0.154692769050598	0.348454564809799	0.0281294342130423	
2432	19.007812	-0.116519644856453	0.28966748714447	0.065668061375618	-0.0838085934519768	0.296728819608688	0.045090664178133	-0.110142543911934	0.311375349760056	0.0693111419677734	-0.14881394803524	0.333570897579193	0.00546011561527848	-0.152761086821556	0.321072280406952	0.0277922805398703	-0.149500355124474	0.34411233663559	0.0286817606538534	
2433	19.015625	-0.110538370907307	0.286071717739105	0.0665363445878029	-0.0777709856629372	0.293581366539001	0.0461931452155113	-0.104416288435459	0.307859301567078	0.070180170238018	-0.14332889020443	0.329112261533737	0.00610674871131778	-0.147125646471977	0.316687226295471	0.0284743849188089	-0.144224047660828	0.339692801237106	0.0293026212602854	
2434	19.023437	-0.104225762188435	0.282503604888916	0.0674719586968422	-0.0715720728039742	0.290561199188232	0.0471647828817368	-0.098526194691658	0.30445808172226	0.0710234791040421	-0.137671858072281	0.324768275022507	0.00665427651256323	-0.141306951642036	0.312335014343262	0.029209116473794	-0.138902798295021	0.335417538881302	0.0299570560455322	
2435	19.03125	-0.0978113785386086	0.27903413772583	0.0683712363243103	-0.0652679800987244	0.287615716457367	0.0480081960558891	-0.0925083011388779	0.301107972860336	0.0719003453850746	-0.131982922554016	0.320540189743042	0.00710710743442178	-0.135435074567795	0.308059632778168	0.0299150291830301	-0.13335770368576	0.331141144037247	0.0307201761752367	
2436	19.039062	-0.0910615101456642	0.275750070810318	0.0693500563502312	-0.0587413907051086	0.284892022609711	0.0490045472979546	-0.08621796220541	0.297836780548096	0.0727832391858101	-0.126138940453529	0.316297113895416	0.00786980055272579	-0.129258826375008	0.303909182548523	0.0307095795869827	-0.127625286579132	0.326993137598038	0.0314617902040482	
